<svg width="60" height="60" viewBox="0 0 60 60" fill="none" xmlns="http://www.w3.org/2000/svg">
<rect width="60" height="60" rx="12" fill="#F1DF6F"/>
<path d="M39.167 44.6673H48.3337V41.0007C48.3337 37.9631 45.8712 35.5007 42.8337 35.5007C41.0817 35.5007 39.5211 36.3198 38.5139 37.596M39.167 44.6673H20.8337M39.167 44.6673V41.0007C39.167 39.7975 38.9352 38.6486 38.5139 37.596M20.8337 44.6673H11.667V41.0007C11.667 37.9631 14.1294 35.5007 17.167 35.5007C18.9189 35.5007 20.4796 36.3198 21.4868 37.596M20.8337 44.6673V41.0007C20.8337 39.7975 21.0654 38.6486 21.4868 37.596M21.4868 37.596C22.8384 34.2192 26.1408 31.834 30.0003 31.834C33.8598 31.834 37.1622 34.2192 38.5139 37.596M35.5003 20.834C35.5003 23.8716 33.0379 26.334 30.0003 26.334C26.9628 26.334 24.5003 23.8716 24.5003 20.834C24.5003 17.7964 26.9628 15.334 30.0003 15.334C33.0379 15.334 35.5003 17.7964 35.5003 20.834ZM46.5003 26.334C46.5003 28.359 44.8587 30.0007 42.8337 30.0007C40.8086 30.0007 39.167 28.359 39.167 26.334C39.167 24.3089 40.8086 22.6673 42.8337 22.6673C44.8587 22.6673 46.5003 24.3089 46.5003 26.334ZM20.8337 26.334C20.8337 28.359 19.192 30.0007 17.167 30.0007C15.1419 30.0007 13.5003 28.359 13.5003 26.334C13.5003 24.3089 15.1419 22.6673 17.167 22.6673C19.192 22.6673 20.8337 24.3089 20.8337 26.334Z" stroke="#111827" stroke-width="3.66667" stroke-linecap="round" stroke-linejoin="round"/>
</svg>
