<svg width="60" height="60" viewBox="0 0 60 60" fill="none" xmlns="http://www.w3.org/2000/svg">
<rect width="60" height="60" rx="12" fill="#F1DF6F"/>
<path d="M46.5 30C46.5 39.1127 39.1127 46.5 30 46.5C20.8873 46.5 13.5 39.1127 13.5 30C13.5 20.8873 20.8873 13.5 30 13.5M30 30H30.0183" stroke="#111827" stroke-width="3.66667" stroke-linecap="round" stroke-linejoin="round"/>
<path d="M39.1663 30.0007C39.1663 35.0633 35.0623 39.1673 29.9997 39.1673C24.9371 39.1673 20.833 35.0633 20.833 30.0007C20.833 24.938 24.9371 20.834 29.9997 20.834M29.9997 30.0007H30.0099" stroke="#111827" stroke-width="3.66667" stroke-linecap="round" stroke-linejoin="round"/>
<path d="M30 30.0007L39.1667 20.834M39.1667 20.834V15.334M39.1667 20.834L44.6667 19.9173" stroke="#111827" stroke-width="3.66667" stroke-linecap="round"/>
</svg>
