<svg width="60" height="60" viewBox="0 0 60 60" fill="none" xmlns="http://www.w3.org/2000/svg">
<rect width="60" height="60" rx="12" fill="#F1DF6F"/>
<path d="M15.333 37.334L23.7403 28.9267C25.1722 27.4948 27.4938 27.4948 28.9257 28.9267L37.333 37.334M33.6663 33.6673L36.5736 30.76C38.0055 29.3281 40.3271 29.3281 41.7591 30.76L44.6663 33.6673M33.6663 22.6673H33.6847M18.9997 44.6673H40.9997C43.0247 44.6673 44.6663 43.0257 44.6663 41.0007V19.0007C44.6663 16.9756 43.0247 15.334 40.9997 15.334H18.9997C16.9746 15.334 15.333 16.9756 15.333 19.0007V41.0007C15.333 43.0257 16.9746 44.6673 18.9997 44.6673Z" stroke="#111827" stroke-width="3.66667" stroke-linecap="round" stroke-linejoin="round"/>
</svg>
