<svg width="60" height="60" viewBox="0 0 60 60" fill="none" xmlns="http://www.w3.org/2000/svg">
<rect width="60" height="60" rx="12" fill="#F1DF6F"/>
<g clip-path="url(#clip0_53_4248)">
<path d="M28.2564 13.3655C28.8053 11.6765 31.1947 11.6765 31.7436 13.3655L34.5281 21.9343C34.7736 22.6897 35.4774 23.201 36.2716 23.2011L45.2815 23.2014C47.0575 23.2015 47.7959 25.474 46.3591 26.5179L39.0702 31.8141C38.4277 32.2809 38.1588 33.1084 38.4042 33.8637L41.1881 42.4327C41.7368 44.1218 39.8037 45.5262 38.3669 44.4824L31.0776 39.1868C30.435 38.72 29.565 38.72 28.9224 39.1868L21.6331 44.4824C20.1963 45.5262 18.2632 44.1218 18.8119 42.4327L21.5958 33.8637C21.8412 33.1084 21.5723 32.2809 20.9298 31.8141L13.6409 26.5179C12.2041 25.474 12.9425 23.2015 14.7185 23.2014L23.7284 23.2011C24.5226 23.201 25.2264 22.6897 25.4719 21.9343L28.2564 13.3655Z" stroke="#111827" stroke-width="3.66667"/>
</g>
<defs>
<clipPath id="clip0_53_4248">
<rect width="44" height="44" fill="white" transform="translate(8 8)"/>
</clipPath>
</defs>
</svg>
