<svg width="156" height="40" viewBox="0 0 156 40" fill="none" xmlns="http://www.w3.org/2000/svg">
<path d="M11.1523 24.7559C11.1523 24.8079 11.1393 24.8535 11.1133 24.8926C11.0872 24.9251 11.0417 24.9544 10.9766 24.9805C10.9115 25.0065 10.8236 25.026 10.7129 25.0391C10.6087 25.0521 10.4753 25.0586 10.3125 25.0586C10.1562 25.0586 10.0228 25.0521 9.91211 25.0391C9.80143 25.026 9.71354 25.0065 9.64844 24.9805C9.58984 24.9544 9.54753 24.9251 9.52148 24.8926C9.49544 24.8535 9.48242 24.8079 9.48242 24.7559V16.4648C9.48242 16.263 9.48568 16.0547 9.49219 15.8398C9.4987 15.6185 9.50846 15.4199 9.52148 15.2441H9.50195C9.44987 15.3353 9.39128 15.4329 9.32617 15.5371C9.26758 15.6413 9.20247 15.752 9.13086 15.8691C9.05924 15.9798 8.98763 16.0938 8.91602 16.2109C8.8444 16.3216 8.77279 16.4323 8.70117 16.543L3.23242 24.7656C3.19336 24.8177 3.1543 24.8633 3.11523 24.9023C3.07617 24.9414 3.02409 24.974 2.95898 25C2.90039 25.0195 2.82878 25.0326 2.74414 25.0391C2.65951 25.0521 2.55208 25.0586 2.42188 25.0586C2.27214 25.0586 2.14844 25.0521 2.05078 25.0391C1.95964 25.026 1.88477 25.0065 1.82617 24.9805C1.77409 24.9479 1.73503 24.9121 1.70898 24.873C1.68945 24.834 1.67969 24.7852 1.67969 24.7266V12.6074C1.67969 12.5618 1.69271 12.5195 1.71875 12.4805C1.7513 12.4414 1.80013 12.4089 1.86523 12.3828C1.93685 12.3568 2.02474 12.3372 2.12891 12.3242C2.23958 12.3112 2.36979 12.3047 2.51953 12.3047C2.68229 12.3047 2.81576 12.3112 2.91992 12.3242C3.0306 12.3372 3.11849 12.3568 3.18359 12.3828C3.2487 12.4089 3.29427 12.4414 3.32031 12.4805C3.34635 12.5195 3.35938 12.5618 3.35938 12.6074V20.9473C3.35938 21.123 3.35612 21.3118 3.34961 21.5137C3.34961 21.7155 3.33984 21.9108 3.32031 22.0996H3.33984C3.44401 21.9368 3.56445 21.7415 3.70117 21.5137C3.8444 21.2793 3.99414 21.0482 4.15039 20.8203L9.60938 12.5879C9.64193 12.5423 9.67773 12.5033 9.7168 12.4707C9.75586 12.4316 9.80469 12.4023 9.86328 12.3828C9.92839 12.3568 10.0033 12.3372 10.0879 12.3242C10.1725 12.3112 10.2799 12.3047 10.4102 12.3047C10.5599 12.3047 10.6803 12.3112 10.7715 12.3242C10.8691 12.3372 10.944 12.36 10.9961 12.3926C11.0547 12.4186 11.0938 12.4512 11.1133 12.4902C11.1393 12.5228 11.1523 12.5684 11.1523 12.627V24.7559ZM22.0312 24.7559C22.0312 24.8079 22.0182 24.8535 21.9922 24.8926C21.9661 24.9251 21.9238 24.9544 21.8652 24.9805C21.8066 25.0065 21.7253 25.026 21.6211 25.0391C21.5169 25.0521 21.3867 25.0586 21.2305 25.0586C21.0677 25.0586 20.9342 25.0521 20.8301 25.0391C20.7259 25.026 20.6445 25.0065 20.5859 24.9805C20.5273 24.9544 20.485 24.9251 20.459 24.8926C20.4329 24.8535 20.4199 24.8079 20.4199 24.7559V20.8984H15.9375V24.7559C15.9375 24.8079 15.9245 24.8535 15.8984 24.8926C15.8724 24.9251 15.8301 24.9544 15.7715 24.9805C15.7129 25.0065 15.6315 25.026 15.5273 25.0391C15.4232 25.0521 15.2897 25.0586 15.127 25.0586C14.9707 25.0586 14.8405 25.0521 14.7363 25.0391C14.6322 25.026 14.5475 25.0065 14.4824 24.9805C14.4238 24.9544 14.3815 24.9251 14.3555 24.8926C14.3359 24.8535 14.3262 24.8079 14.3262 24.7559V15.9668C14.3262 15.9147 14.3359 15.8724 14.3555 15.8398C14.3815 15.8008 14.4238 15.7682 14.4824 15.7422C14.5475 15.7096 14.6322 15.6901 14.7363 15.6836C14.8405 15.6706 14.9707 15.6641 15.127 15.6641C15.2897 15.6641 15.4232 15.6706 15.5273 15.6836C15.6315 15.6901 15.7129 15.7096 15.7715 15.7422C15.8301 15.7682 15.8724 15.8008 15.8984 15.8398C15.9245 15.8724 15.9375 15.9147 15.9375 15.9668V19.541H20.4199V15.9668C20.4199 15.9147 20.4329 15.8724 20.459 15.8398C20.485 15.8008 20.5273 15.7682 20.5859 15.7422C20.6445 15.7096 20.7259 15.6901 20.8301 15.6836C20.9342 15.6706 21.0677 15.6641 21.2305 15.6641C21.3867 15.6641 21.5169 15.6706 21.6211 15.6836C21.7253 15.6901 21.8066 15.7096 21.8652 15.7422C21.9238 15.7682 21.9661 15.8008 21.9922 15.8398C22.0182 15.8724 22.0312 15.9147 22.0312 15.9668V24.7559ZM32.7344 24.7559C32.7344 24.8079 32.7214 24.8535 32.6953 24.8926C32.6693 24.9251 32.627 24.9544 32.5684 24.9805C32.5098 25.0065 32.4284 25.026 32.3242 25.0391C32.2201 25.0521 32.0898 25.0586 31.9336 25.0586C31.7708 25.0586 31.6374 25.0521 31.5332 25.0391C31.429 25.026 31.3477 25.0065 31.2891 24.9805C31.2305 24.9544 31.1882 24.9251 31.1621 24.8926C31.1361 24.8535 31.123 24.8079 31.123 24.7559V20.8984H26.6406V24.7559C26.6406 24.8079 26.6276 24.8535 26.6016 24.8926C26.5755 24.9251 26.5332 24.9544 26.4746 24.9805C26.416 25.0065 26.3346 25.026 26.2305 25.0391C26.1263 25.0521 25.9928 25.0586 25.8301 25.0586C25.6738 25.0586 25.5436 25.0521 25.4395 25.0391C25.3353 25.026 25.2507 25.0065 25.1855 24.9805C25.127 24.9544 25.0846 24.9251 25.0586 24.8926C25.0391 24.8535 25.0293 24.8079 25.0293 24.7559V15.9668C25.0293 15.9147 25.0391 15.8724 25.0586 15.8398C25.0846 15.8008 25.127 15.7682 25.1855 15.7422C25.2507 15.7096 25.3353 15.6901 25.4395 15.6836C25.5436 15.6706 25.6738 15.6641 25.8301 15.6641C25.9928 15.6641 26.1263 15.6706 26.2305 15.6836C26.3346 15.6901 26.416 15.7096 26.4746 15.7422C26.5332 15.7682 26.5755 15.8008 26.6016 15.8398C26.6276 15.8724 26.6406 15.9147 26.6406 15.9668V19.541H31.123V15.9668C31.123 15.9147 31.1361 15.8724 31.1621 15.8398C31.1882 15.8008 31.2305 15.7682 31.2891 15.7422C31.3477 15.7096 31.429 15.6901 31.5332 15.6836C31.6374 15.6706 31.7708 15.6641 31.9336 15.6641C32.0898 15.6641 32.2201 15.6706 32.3242 15.6836C32.4284 15.6901 32.5098 15.7096 32.5684 15.7422C32.627 15.7682 32.6693 15.8008 32.6953 15.8398C32.7214 15.8724 32.7344 15.9147 32.7344 15.9668V24.7559ZM43.9062 20.2637C43.9062 20.9798 43.8118 21.6406 43.623 22.2461C43.4342 22.8451 43.151 23.3626 42.7734 23.7988C42.4023 24.235 41.9336 24.5768 41.3672 24.8242C40.8073 25.0651 40.1562 25.1855 39.4141 25.1855C38.6914 25.1855 38.0599 25.0781 37.5195 24.8633C36.9857 24.6484 36.5397 24.3359 36.1816 23.9258C35.8236 23.5156 35.5566 23.0176 35.3809 22.4316C35.2051 21.8457 35.1172 21.1816 35.1172 20.4395C35.1172 19.7233 35.2083 19.0658 35.3906 18.4668C35.5794 17.8613 35.8594 17.3405 36.2305 16.9043C36.6081 16.4681 37.0768 16.1296 37.6367 15.8887C38.1966 15.6478 38.8509 15.5273 39.5996 15.5273C40.3223 15.5273 40.9505 15.6348 41.4844 15.8496C42.0247 16.0645 42.474 16.377 42.832 16.7871C43.1901 17.1973 43.457 17.6953 43.6328 18.2812C43.8151 18.8672 43.9062 19.528 43.9062 20.2637ZM42.207 20.3711C42.207 19.8958 42.1615 19.4466 42.0703 19.0234C41.9857 18.6003 41.8424 18.2292 41.6406 17.9102C41.4388 17.5911 41.1654 17.3405 40.8203 17.1582C40.4753 16.9694 40.0456 16.875 39.5312 16.875C39.056 16.875 38.6458 16.9596 38.3008 17.1289C37.9622 17.2982 37.6823 17.5391 37.4609 17.8516C37.2396 18.1576 37.0736 18.5221 36.9629 18.9453C36.8587 19.3685 36.8066 19.8307 36.8066 20.332C36.8066 20.8138 36.849 21.2663 36.9336 21.6895C37.0247 22.1126 37.1712 22.4837 37.373 22.8027C37.5814 23.1152 37.8581 23.3659 38.2031 23.5547C38.5482 23.737 38.9779 23.8281 39.4922 23.8281C39.9609 23.8281 40.3678 23.7435 40.7129 23.5742C41.0579 23.4049 41.3411 23.1673 41.5625 22.8613C41.7839 22.5553 41.9466 22.1908 42.0508 21.7676C42.1549 21.3444 42.207 20.8789 42.207 20.3711ZM53.4473 24.8242C53.4473 24.8633 53.4342 24.8991 53.4082 24.9316C53.3887 24.9577 53.3464 24.9805 53.2812 25C53.2227 25.0195 53.1413 25.0326 53.0371 25.0391C52.9395 25.0521 52.8125 25.0586 52.6562 25.0586C52.474 25.0586 52.3242 25.0521 52.207 25.0391C52.0964 25.026 52.0052 25.0098 51.9336 24.9902C51.862 24.9642 51.8099 24.9349 51.7773 24.9023C51.7448 24.8633 51.722 24.821 51.709 24.7754L50.7715 22.5C50.6543 22.207 50.5273 21.9564 50.3906 21.748C50.2604 21.5332 50.1074 21.3607 49.9316 21.2305C49.7559 21.1003 49.5573 21.0059 49.3359 20.9473C49.1146 20.8887 48.8607 20.8594 48.5742 20.8594H47.8906V24.8145C47.8906 24.847 47.8743 24.8796 47.8418 24.9121C47.8092 24.9447 47.7604 24.9707 47.6953 24.9902C47.6302 25.0098 47.5456 25.026 47.4414 25.0391C47.3372 25.0521 47.2168 25.0586 47.0801 25.0586C46.9434 25.0586 46.8229 25.0521 46.7188 25.0391C46.6146 25.026 46.5299 25.0098 46.4648 24.9902C46.3997 24.9707 46.3509 24.9447 46.3184 24.9121C46.2923 24.8796 46.2793 24.847 46.2793 24.8145V15.8887C46.2793 15.8561 46.2923 15.8268 46.3184 15.8008C46.3509 15.7682 46.3997 15.7422 46.4648 15.7227C46.5299 15.7031 46.6146 15.6901 46.7188 15.6836C46.8229 15.6706 46.9434 15.6641 47.0801 15.6641C47.2168 15.6641 47.3372 15.6706 47.4414 15.6836C47.5456 15.6901 47.6302 15.7031 47.6953 15.7227C47.7604 15.7422 47.8092 15.7682 47.8418 15.8008C47.8743 15.8268 47.8906 15.8561 47.8906 15.8887V19.5703H48.5742C48.8216 19.5703 49.0462 19.5443 49.248 19.4922C49.4564 19.4336 49.6452 19.3424 49.8145 19.2188C49.9837 19.0885 50.1335 18.9225 50.2637 18.7207C50.4004 18.5189 50.5241 18.2747 50.6348 17.9883L51.4551 15.9668C51.4681 15.9147 51.4909 15.8691 51.5234 15.8301C51.556 15.791 51.6048 15.7585 51.6699 15.7324C51.735 15.7064 51.8197 15.6901 51.9238 15.6836C52.0345 15.6706 52.1777 15.6641 52.3535 15.6641C52.5098 15.6641 52.6367 15.6706 52.7344 15.6836C52.8385 15.6901 52.9167 15.7031 52.9688 15.7227C53.0273 15.7422 53.0664 15.7682 53.0859 15.8008C53.1055 15.8268 53.1152 15.8561 53.1152 15.8887C53.1152 15.9473 53.1055 16.0091 53.0859 16.0742C53.0729 16.1393 53.0501 16.2142 53.0176 16.2988L52.1777 18.2324C52.0475 18.5579 51.9043 18.8314 51.748 19.0527C51.5983 19.2741 51.4453 19.4596 51.2891 19.6094C51.1328 19.7526 50.9733 19.8665 50.8105 19.9512C50.6478 20.0293 50.4915 20.0911 50.3418 20.1367V20.1562C50.5697 20.2344 50.778 20.3288 50.9668 20.4395C51.1621 20.5501 51.3411 20.6868 51.5039 20.8496C51.6732 21.0124 51.8294 21.2077 51.9727 21.4355C52.1159 21.6569 52.2493 21.9141 52.373 22.207L53.3398 24.4336C53.3659 24.4792 53.3854 24.5215 53.3984 24.5605C53.4115 24.5996 53.4212 24.6387 53.4277 24.6777C53.4342 24.7103 53.4375 24.7396 53.4375 24.7656C53.444 24.7852 53.4473 24.8047 53.4473 24.8242ZM62.8223 19.9805C62.8223 20.2344 62.7572 20.4167 62.627 20.5273C62.5033 20.6315 62.36 20.6836 62.1973 20.6836H56.4355C56.4355 21.1719 56.4844 21.6113 56.582 22.002C56.6797 22.3926 56.8424 22.7279 57.0703 23.0078C57.2982 23.2878 57.5944 23.5026 57.959 23.6523C58.3236 23.8021 58.7695 23.877 59.2969 23.877C59.7135 23.877 60.0846 23.8444 60.4102 23.7793C60.7357 23.7077 61.0156 23.6296 61.25 23.5449C61.4909 23.4603 61.6862 23.3854 61.8359 23.3203C61.9922 23.2487 62.1094 23.2129 62.1875 23.2129C62.2331 23.2129 62.2721 23.2259 62.3047 23.252C62.3438 23.2715 62.373 23.304 62.3926 23.3496C62.4121 23.3952 62.4251 23.4603 62.4316 23.5449C62.4447 23.623 62.4512 23.7207 62.4512 23.8379C62.4512 23.9225 62.4479 23.9974 62.4414 24.0625C62.4349 24.1211 62.4251 24.1764 62.4121 24.2285C62.4056 24.2741 62.3893 24.3164 62.3633 24.3555C62.3438 24.3945 62.3145 24.4336 62.2754 24.4727C62.2428 24.5052 62.1387 24.5638 61.9629 24.6484C61.7871 24.7266 61.5592 24.8047 61.2793 24.8828C60.9993 24.9609 60.6738 25.0293 60.3027 25.0879C59.9382 25.153 59.5475 25.1855 59.1309 25.1855C58.4082 25.1855 57.7734 25.0846 57.2266 24.8828C56.6862 24.681 56.2305 24.3815 55.8594 23.9844C55.4883 23.5872 55.2083 23.0892 55.0195 22.4902C54.8307 21.8913 54.7363 21.1947 54.7363 20.4004C54.7363 19.6452 54.834 18.9681 55.0293 18.3691C55.2246 17.7637 55.5046 17.2526 55.8691 16.8359C56.2402 16.4128 56.6862 16.0905 57.207 15.8691C57.7279 15.6413 58.3105 15.5273 58.9551 15.5273C59.6452 15.5273 60.2311 15.638 60.7129 15.8594C61.2012 16.0807 61.6016 16.3802 61.9141 16.7578C62.2266 17.1289 62.4544 17.5684 62.5977 18.0762C62.7474 18.5775 62.8223 19.1146 62.8223 19.6875V19.9805ZM61.2012 19.502C61.2207 18.6556 61.0319 17.9915 60.6348 17.5098C60.2441 17.028 59.6615 16.7871 58.8867 16.7871C58.4896 16.7871 58.1413 16.862 57.8418 17.0117C57.5423 17.1615 57.2917 17.36 57.0898 17.6074C56.888 17.8548 56.7318 18.1445 56.6211 18.4766C56.5104 18.8021 56.4486 19.1439 56.4355 19.502H61.2012ZM72.9883 24.7559C72.9883 24.8079 72.9753 24.8535 72.9492 24.8926C72.9232 24.9251 72.8809 24.9544 72.8223 24.9805C72.7637 25.0065 72.6823 25.026 72.5781 25.0391C72.474 25.0521 72.3438 25.0586 72.1875 25.0586C72.0247 25.0586 71.8913 25.0521 71.7871 25.0391C71.6829 25.026 71.6016 25.0065 71.543 24.9805C71.4844 24.9544 71.4421 24.9251 71.416 24.8926C71.39 24.8535 71.377 24.8079 71.377 24.7559V20.8984H66.8945V24.7559C66.8945 24.8079 66.8815 24.8535 66.8555 24.8926C66.8294 24.9251 66.7871 24.9544 66.7285 24.9805C66.6699 25.0065 66.5885 25.026 66.4844 25.0391C66.3802 25.0521 66.2467 25.0586 66.084 25.0586C65.9277 25.0586 65.7975 25.0521 65.6934 25.0391C65.5892 25.026 65.5046 25.0065 65.4395 24.9805C65.3809 24.9544 65.3385 24.9251 65.3125 24.8926C65.293 24.8535 65.2832 24.8079 65.2832 24.7559V15.9668C65.2832 15.9147 65.293 15.8724 65.3125 15.8398C65.3385 15.8008 65.3809 15.7682 65.4395 15.7422C65.5046 15.7096 65.5892 15.6901 65.6934 15.6836C65.7975 15.6706 65.9277 15.6641 66.084 15.6641C66.2467 15.6641 66.3802 15.6706 66.4844 15.6836C66.5885 15.6901 66.6699 15.7096 66.7285 15.7422C66.7871 15.7682 66.8294 15.8008 66.8555 15.8398C66.8815 15.8724 66.8945 15.9147 66.8945 15.9668V19.541H71.377V15.9668C71.377 15.9147 71.39 15.8724 71.416 15.8398C71.4421 15.8008 71.4844 15.7682 71.543 15.7422C71.6016 15.7096 71.6829 15.6901 71.7871 15.6836C71.8913 15.6706 72.0247 15.6641 72.1875 15.6641C72.3438 15.6641 72.474 15.6706 72.5781 15.6836C72.6823 15.6901 72.7637 15.7096 72.8223 15.7422C72.8809 15.7682 72.9232 15.8008 72.9492 15.8398C72.9753 15.8724 72.9883 15.9147 72.9883 15.9668V24.7559ZM82.1387 16.4453C82.1387 16.5755 82.1322 16.6862 82.1191 16.7773C82.1061 16.8685 82.0833 16.9434 82.0508 17.002C82.0247 17.0605 81.9922 17.1061 81.9531 17.1387C81.9141 17.1647 81.8652 17.1777 81.8066 17.1777H79.1699V24.7559C79.1699 24.8079 79.1569 24.8535 79.1309 24.8926C79.1048 24.9251 79.0625 24.9544 79.0039 24.9805C78.9453 25.0065 78.8639 25.026 78.7598 25.0391C78.6556 25.0521 78.5221 25.0586 78.3594 25.0586C78.2031 25.0586 78.0729 25.0521 77.9688 25.0391C77.8646 25.026 77.7799 25.0065 77.7148 24.9805C77.6562 24.9544 77.6139 24.9251 77.5879 24.8926C77.5684 24.8535 77.5586 24.8079 77.5586 24.7559V17.1777H74.9219C74.8698 17.1777 74.821 17.1647 74.7754 17.1387C74.7363 17.1061 74.7038 17.0605 74.6777 17.002C74.6517 16.9434 74.6289 16.8685 74.6094 16.7773C74.5964 16.6797 74.5898 16.5658 74.5898 16.4355C74.5898 16.3184 74.5964 16.2142 74.6094 16.123C74.6289 16.0319 74.6517 15.957 74.6777 15.8984C74.7103 15.8333 74.7461 15.7878 74.7852 15.7617C74.8242 15.7292 74.8698 15.7129 74.9219 15.7129H81.8066C81.8587 15.7129 81.9043 15.7292 81.9434 15.7617C81.9889 15.7878 82.0247 15.8333 82.0508 15.8984C82.0768 15.957 82.0964 16.0352 82.1094 16.1328C82.1289 16.224 82.1387 16.3281 82.1387 16.4453ZM91.5625 24.7656C91.5625 24.8112 91.5495 24.8535 91.5234 24.8926C91.4974 24.9316 91.4551 24.9642 91.3965 24.9902C91.3379 25.0098 91.2565 25.026 91.1523 25.0391C91.0482 25.0521 90.918 25.0586 90.7617 25.0586C90.6055 25.0586 90.4753 25.0521 90.3711 25.0391C90.2669 25.026 90.1823 25.0098 90.1172 24.9902C90.0521 24.9642 90.0065 24.9316 89.9805 24.8926C89.9544 24.8535 89.9414 24.8112 89.9414 24.7656V19.707C89.9414 19.4531 89.9479 19.196 89.9609 18.9355C89.974 18.6686 89.9902 18.4082 90.0098 18.1543C89.86 18.4147 89.694 18.6719 89.5117 18.9258C89.3359 19.1732 89.1569 19.4206 88.9746 19.668L85.2441 24.7656C85.1986 24.8177 85.1562 24.8633 85.1172 24.9023C85.0846 24.9414 85.0391 24.974 84.9805 25C84.9284 25.0195 84.86 25.0326 84.7754 25.0391C84.6908 25.0521 84.5866 25.0586 84.4629 25.0586C84.3197 25.0586 84.2025 25.0521 84.1113 25.0391C84.0202 25.026 83.9453 25.0098 83.8867 24.9902C83.8346 24.9642 83.7956 24.9316 83.7695 24.8926C83.75 24.8535 83.7402 24.8112 83.7402 24.7656V15.957C83.7402 15.9115 83.75 15.8691 83.7695 15.8301C83.7956 15.791 83.8379 15.7585 83.8965 15.7324C83.9616 15.7064 84.0462 15.6901 84.1504 15.6836C84.2546 15.6706 84.3815 15.6641 84.5312 15.6641C84.8438 15.6641 85.0586 15.6901 85.1758 15.7422C85.293 15.7878 85.3516 15.8594 85.3516 15.957V21.0449C85.3516 21.2988 85.3451 21.5527 85.332 21.8066C85.319 22.054 85.3027 22.3014 85.2832 22.5488C85.4329 22.3014 85.5827 22.0605 85.7324 21.8262C85.8887 21.5853 86.0547 21.3509 86.2305 21.123L90.0098 15.957C90.0488 15.9049 90.0879 15.8594 90.127 15.8203C90.1725 15.7812 90.2246 15.752 90.2832 15.7324C90.3483 15.7064 90.4232 15.6901 90.5078 15.6836C90.5924 15.6706 90.7031 15.6641 90.8398 15.6641C90.9766 15.6641 91.0905 15.6706 91.1816 15.6836C91.2793 15.6901 91.3542 15.7064 91.4062 15.7324C91.4648 15.7585 91.5039 15.791 91.5234 15.8301C91.5495 15.8691 91.5625 15.9147 91.5625 15.9668V24.7656ZM102.383 24.7656C102.383 24.8112 102.37 24.8535 102.344 24.8926C102.318 24.9316 102.275 24.9642 102.217 24.9902C102.158 25.0098 102.077 25.026 101.973 25.0391C101.868 25.0521 101.738 25.0586 101.582 25.0586C101.426 25.0586 101.296 25.0521 101.191 25.0391C101.087 25.026 101.003 25.0098 100.938 24.9902C100.872 24.9642 100.827 24.9316 100.801 24.8926C100.775 24.8535 100.762 24.8112 100.762 24.7656V19.707C100.762 19.4531 100.768 19.196 100.781 18.9355C100.794 18.6686 100.811 18.4082 100.83 18.1543C100.68 18.4147 100.514 18.6719 100.332 18.9258C100.156 19.1732 99.9772 19.4206 99.7949 19.668L96.0645 24.7656C96.0189 24.8177 95.9766 24.8633 95.9375 24.9023C95.9049 24.9414 95.8594 24.974 95.8008 25C95.7487 25.0195 95.6803 25.0326 95.5957 25.0391C95.5111 25.0521 95.4069 25.0586 95.2832 25.0586C95.14 25.0586 95.0228 25.0521 94.9316 25.0391C94.8405 25.026 94.7656 25.0098 94.707 24.9902C94.6549 24.9642 94.6159 24.9316 94.5898 24.8926C94.5703 24.8535 94.5605 24.8112 94.5605 24.7656V15.957C94.5605 15.9115 94.5703 15.8691 94.5898 15.8301C94.6159 15.791 94.6582 15.7585 94.7168 15.7324C94.7819 15.7064 94.8665 15.6901 94.9707 15.6836C95.0749 15.6706 95.2018 15.6641 95.3516 15.6641C95.6641 15.6641 95.8789 15.6901 95.9961 15.7422C96.1133 15.7878 96.1719 15.8594 96.1719 15.957V21.0449C96.1719 21.2988 96.1654 21.5527 96.1523 21.8066C96.1393 22.054 96.123 22.3014 96.1035 22.5488C96.2533 22.3014 96.403 22.0605 96.5527 21.8262C96.709 21.5853 96.875 21.3509 97.0508 21.123L100.83 15.957C100.869 15.9049 100.908 15.8594 100.947 15.8203C100.993 15.7812 101.045 15.752 101.104 15.7324C101.169 15.7064 101.243 15.6901 101.328 15.6836C101.413 15.6706 101.523 15.6641 101.66 15.6641C101.797 15.6641 101.911 15.6706 102.002 15.6836C102.1 15.6901 102.174 15.7064 102.227 15.7324C102.285 15.7585 102.324 15.791 102.344 15.8301C102.37 15.8691 102.383 15.9147 102.383 15.9668V24.7656ZM101.523 11.8164C101.523 12.1875 101.468 12.5358 101.357 12.8613C101.247 13.1868 101.071 13.4733 100.83 13.7207C100.589 13.9616 100.28 14.1536 99.9023 14.2969C99.5247 14.4336 99.0658 14.502 98.5254 14.502C98.0306 14.502 97.5944 14.4401 97.2168 14.3164C96.8457 14.1927 96.5332 14.0169 96.2793 13.7891C96.0319 13.5547 95.8431 13.2715 95.7129 12.9395C95.5892 12.6074 95.5273 12.2331 95.5273 11.8164C95.5273 11.7513 95.5371 11.696 95.5566 11.6504C95.5827 11.6048 95.625 11.569 95.6836 11.543C95.7487 11.5169 95.8301 11.4974 95.9277 11.4844C96.0319 11.4714 96.1556 11.4648 96.2988 11.4648C96.4551 11.4648 96.5788 11.4746 96.6699 11.4941C96.7611 11.5072 96.8294 11.5299 96.875 11.5625C96.9271 11.5951 96.9596 11.6374 96.9727 11.6895C96.9922 11.7415 97.002 11.8034 97.002 11.875C97.002 12.0833 97.0345 12.2754 97.0996 12.4512C97.1647 12.627 97.2624 12.7799 97.3926 12.9102C97.5293 13.0404 97.6921 13.1413 97.8809 13.2129C98.0697 13.2845 98.2878 13.3203 98.5352 13.3203C98.776 13.3203 98.9876 13.2845 99.1699 13.2129C99.3587 13.1413 99.5182 13.0404 99.6484 12.9102C99.7786 12.7799 99.8763 12.6237 99.9414 12.4414C100.007 12.2591 100.039 12.0638 100.039 11.8555C100.039 11.7904 100.046 11.735 100.059 11.6895C100.078 11.6374 100.111 11.5951 100.156 11.5625C100.208 11.5299 100.277 11.5072 100.361 11.4941C100.452 11.4746 100.573 11.4648 100.723 11.4648C100.879 11.4648 101.006 11.4714 101.104 11.4844C101.208 11.4974 101.289 11.5169 101.348 11.543C101.413 11.569 101.458 11.6048 101.484 11.6504C101.51 11.696 101.523 11.7513 101.523 11.8164Z" fill="#111827"/>
<rect x="116" width="40" height="40" rx="20" fill="#C7D2FE"/>
<path d="M141.383 26.707C141.383 26.7695 141.367 26.8242 141.336 26.8711C141.305 26.9102 141.25 26.9453 141.172 26.9766C141.094 27.0078 140.988 27.0312 140.855 27.0469C140.73 27.0625 140.57 27.0703 140.375 27.0703C140.188 27.0703 140.027 27.0625 139.895 27.0469C139.762 27.0312 139.656 27.0078 139.578 26.9766C139.508 26.9453 139.457 26.9102 139.426 26.8711C139.395 26.8242 139.379 26.7695 139.379 26.707V16.7578C139.379 16.5156 139.383 16.2656 139.391 16.0078C139.398 15.7422 139.41 15.5039 139.426 15.293H139.402C139.34 15.4023 139.27 15.5195 139.191 15.6445C139.121 15.7695 139.043 15.9023 138.957 16.043C138.871 16.1758 138.785 16.3125 138.699 16.4531C138.613 16.5859 138.527 16.7188 138.441 16.8516L131.879 26.7188C131.832 26.7812 131.785 26.8359 131.738 26.8828C131.691 26.9297 131.629 26.9688 131.551 27C131.48 27.0234 131.395 27.0391 131.293 27.0469C131.191 27.0625 131.062 27.0703 130.906 27.0703C130.727 27.0703 130.578 27.0625 130.461 27.0469C130.352 27.0312 130.262 27.0078 130.191 26.9766C130.129 26.9375 130.082 26.8945 130.051 26.8477C130.027 26.8008 130.016 26.7422 130.016 26.6719V12.1289C130.016 12.0742 130.031 12.0234 130.062 11.9766C130.102 11.9297 130.16 11.8906 130.238 11.8594C130.324 11.8281 130.43 11.8047 130.555 11.7891C130.688 11.7734 130.844 11.7656 131.023 11.7656C131.219 11.7656 131.379 11.7734 131.504 11.7891C131.637 11.8047 131.742 11.8281 131.82 11.8594C131.898 11.8906 131.953 11.9297 131.984 11.9766C132.016 12.0234 132.031 12.0742 132.031 12.1289V22.1367C132.031 22.3477 132.027 22.5742 132.02 22.8164C132.02 23.0586 132.008 23.293 131.984 23.5195H132.008C132.133 23.3242 132.277 23.0898 132.441 22.8164C132.613 22.5352 132.793 22.2578 132.98 21.9844L139.531 12.1055C139.57 12.0508 139.613 12.0039 139.66 11.9648C139.707 11.918 139.766 11.8828 139.836 11.8594C139.914 11.8281 140.004 11.8047 140.105 11.7891C140.207 11.7734 140.336 11.7656 140.492 11.7656C140.672 11.7656 140.816 11.7734 140.926 11.7891C141.043 11.8047 141.133 11.832 141.195 11.8711C141.266 11.9023 141.312 11.9414 141.336 11.9883C141.367 12.0273 141.383 12.082 141.383 12.1523V26.707Z" fill="black"/>
</svg>
